<?xml version="1.0" standalone="no"?>
<!DOCTYPE svg PUBLIC "-//W3C//DTD SVG 20010904//EN"
 "http://www.w3.org/TR/2001/REC-SVG-20010904/DTD/svg10.dtd">
<svg version="1.0" xmlns="http://www.w3.org/2000/svg"
 width="1783.000000pt" height="1783.000000pt" viewBox="0 0 1783.000000 1783.000000"
 preserveAspectRatio="xMidYMid meet">
<metadata>
Created by potrace 1.14, written by Peter Selinger 2001-2017
</metadata>
<g transform="translate(0.000000,1783.000000) scale(0.100000,-0.100000)"
fill="#000000" stroke="none">
<path d="M8579 15796 c-20 -8 -49 -21 -66 -29 -26 -14 -35 -14 -70 -2 -87 30
-201 21 -295 -25 -37 -18 -46 -19 -87 -6 -89 26 -200 6 -293 -53 -35 -23 -49
-26 -64 -18 -29 16 -153 13 -210 -6 -28 -10 -71 -30 -95 -45 -38 -24 -53 -27
-113 -25 -86 2 -171 -24 -241 -74 -47 -35 -53 -36 -135 -37 -72 -1 -94 -5
-140 -28 -30 -15 -73 -44 -95 -65 -37 -33 -46 -37 -104 -39 -95 -3 -190 -46
-261 -117 -20 -19 -40 -27 -85 -31 -82 -9 -174 -56 -233 -121 -44 -48 -52 -52
-107 -59 -102 -11 -189 -67 -257 -164 -10 -15 -29 -25 -54 -28 -89 -11 -194
-81 -255 -170 -21 -31 -35 -42 -49 -39 -53 10 -195 -94 -243 -179 -24 -43 -27
-45 -109 -76 -77 -30 -138 -86 -179 -165 -19 -36 -40 -65 -47 -65 -7 0 -31 -9
-53 -20 -76 -39 -121 -86 -170 -177 -27 -51 -42 -69 -63 -74 -74 -20 -156
-110 -197 -215 -20 -51 -30 -64 -59 -77 -84 -36 -178 -156 -194 -247 -4 -26
-13 -38 -35 -48 -69 -30 -151 -145 -172 -239 -10 -45 -18 -56 -60 -84 -66 -46
-114 -122 -135 -217 -16 -72 -21 -81 -73 -132 -74 -73 -121 -169 -121 -251 0
-27 -6 -43 -23 -56 -71 -58 -127 -178 -127 -274 0 -46 -4 -55 -38 -88 -21 -20
-45 -48 -55 -63 -26 -41 -46 -135 -44 -201 2 -51 -1 -62 -26 -90 -32 -35 -75
-120 -84 -164 -3 -16 -6 -60 -7 -99 -1 -59 -5 -77 -28 -110 -50 -73 -73 -183
-58 -281 7 -42 4 -53 -20 -88 -56 -82 -74 -191 -48 -289 11 -41 10 -49 -14
-93 -44 -81 -54 -165 -32 -271 13 -60 12 -64 -13 -112 -34 -66 -36 -175 -5
-264 l20 -60 -20 -50 c-38 -97 -34 -222 8 -308 12 -22 11 -33 -2 -70 -33 -89
-22 -203 27 -301 18 -35 18 -41 5 -81 -26 -77 -8 -212 38 -280 20 -30 23 -55
14 -140 -8 -78 8 -143 52 -219 32 -55 39 -76 34 -101 -18 -90 8 -192 71 -285
31 -45 34 -55 30 -107 -6 -94 32 -190 110 -282 10 -11 18 -43 20 -83 1 -35 5
-74 8 -87 10 -40 59 -121 99 -161 31 -32 38 -47 38 -78 0 -55 25 -140 53 -182
29 -42 96 -111 108 -111 5 0 8 -15 7 -33 -3 -96 73 -230 168 -294 15 -9 23
-28 26 -58 10 -88 88 -204 169 -252 19 -11 29 -28 34 -52 12 -64 53 -140 103
-189 51 -50 183 -122 223 -122 14 0 -11 -20 -72 -57 -77 -46 -264 -172 -304
-205 -188 -155 -446 -285 -624 -314 -18 -3 -43 -8 -55 -10 -52 -12 -257 -11
-326 1 -191 34 -337 125 -435 274 -165 249 -93 591 151 723 177 96 519 68 641
-52 43 -42 74 -109 76 -162 2 -83 -72 -158 -171 -174 -84 -13 -202 70 -239
169 l-11 32 -1 -42 c-1 -53 27 -129 65 -177 128 -161 389 -144 519 34 119 164
82 404 -90 575 -146 146 -352 219 -640 230 -361 13 -688 -219 -818 -581 -59
-164 -68 -361 -26 -554 36 -163 143 -353 274 -481 l76 -76 -918 0 c-686 0
-917 -3 -915 -12 2 -9 75 -140 112 -201 5 -8 38 -64 73 -125 35 -60 135 -231
222 -380 87 -148 167 -286 178 -305 11 -19 62 -106 113 -193 52 -87 94 -161
94 -164 0 -4 6 -14 14 -22 7 -9 28 -42 46 -75 l32 -59 -23 -41 c-12 -22 -97
-169 -189 -326 -354 -603 -444 -756 -468 -800 -14 -25 -33 -57 -43 -72 -11
-14 -19 -28 -19 -31 0 -3 -34 -62 -75 -132 -41 -69 -75 -128 -75 -131 0 -2
3841 -4 8535 -4 l8535 0 -23 38 c-13 20 -153 260 -312 532 -158 272 -298 511
-310 530 -12 19 -75 125 -139 234 l-117 200 67 115 c37 64 82 140 98 169 17
30 36 61 41 70 9 15 40 69 179 305 39 68 265 454 282 484 11 18 65 112 122
209 57 97 101 179 98 182 -3 3 -430 5 -948 5 -519 0 -947 2 -951 4 -4 3 11 18
35 33 62 41 187 174 241 256 67 101 123 235 143 339 2 11 7 31 10 45 15 62 11
276 -6 363 -88 425 -434 713 -850 707 -62 -1 -86 -3 -175 -14 -197 -26 -387
-120 -499 -248 -160 -182 -169 -437 -19 -586 74 -73 129 -96 238 -96 73 -1 99
3 135 21 54 26 115 84 140 133 23 45 39 130 29 156 -7 17 -8 17 -8 1 -3 -59
-93 -158 -160 -177 -88 -24 -174 5 -223 76 -57 82 -18 209 86 280 135 92 426
106 583 29 298 -147 350 -556 104 -818 -119 -128 -299 -196 -518 -197 -220 -2
-470 68 -627 175 -20 14 -39 25 -41 25 -2 0 -60 40 -127 90 -168 122 -361 251
-432 289 l-59 31 60 -6 c151 -16 295 94 319 245 5 32 14 45 39 61 75 46 133
135 157 240 9 39 18 55 38 65 66 34 143 164 154 259 5 44 11 55 53 91 27 23
58 62 70 86 24 47 49 148 49 189 -1 16 11 35 32 54 66 58 112 165 114 263 1
49 5 66 21 80 33 29 83 115 94 161 6 23 11 74 11 113 0 62 3 74 25 97 57 62
87 163 82 275 -4 60 -1 75 15 92 53 56 84 204 63 300 -8 35 -6 45 19 85 37 58
51 110 50 185 -1 59 -3 73 -17 128 -5 19 -3 33 8 45 47 53 64 216 32 312 -12
37 -14 54 -6 64 46 55 56 206 21 300 l-23 59 23 64 c28 80 22 168 -17 255 -23
52 -25 62 -14 100 28 101 20 198 -23 289 -22 46 -25 60 -16 83 5 15 10 56 10
90 0 82 -17 135 -68 220 -20 31 -22 43 -13 62 5 13 9 58 7 101 -3 84 -24 146
-71 207 -23 31 -26 41 -22 93 8 86 -23 185 -82 263 -23 31 -26 45 -26 111 0
65 -5 85 -33 140 -17 35 -48 83 -69 107 -34 39 -38 48 -39 107 -3 81 -43 172
-105 240 -35 38 -44 55 -50 102 -11 80 -59 171 -123 231 -51 48 -54 54 -59
111 -7 87 -54 161 -144 227 -21 16 -39 29 -41 30 -2 1 -5 14 -8 30 -17 104
-76 197 -162 259 -38 27 -50 43 -60 80 -22 84 -90 166 -184 222 -31 18 -48 35
-48 48 0 37 -48 123 -90 164 -23 22 -68 53 -100 68 -53 25 -61 33 -75 76 -24
68 -107 155 -185 192 -52 25 -66 37 -86 78 -44 85 -151 168 -248 193 -17 4
-29 17 -37 41 -6 19 -37 61 -69 93 -45 45 -71 62 -121 79 -34 11 -70 21 -80
21 -9 0 -22 12 -28 28 -33 78 -157 163 -272 186 -16 3 -37 22 -54 47 -48 69
-130 116 -244 138 -46 10 -62 20 -110 69 -68 70 -132 102 -220 109 -61 5 -69
9 -106 46 -55 56 -147 97 -237 106 -64 6 -77 11 -106 39 -62 61 -145 91 -257
93 -60 1 -75 5 -105 29 -82 65 -177 94 -277 85 -48 -4 -60 -1 -96 24 -80 54
-174 73 -284 56 -35 -5 -49 -1 -80 19 -83 54 -178 70 -286 46 -49 -11 -57 -10
-98 11 -86 44 -193 55 -289 29 -33 -9 -50 -7 -111 14 -85 29 -174 28 -263 -2
-55 -19 -57 -19 -98 1 -56 25 -189 32 -239 13z m189 -55 c53 -15 126 -72 156
-124 14 -23 34 -79 45 -124 19 -78 42 -132 77 -180 16 -22 15 -23 -12 -34 -16
-6 -55 -12 -88 -14 -142 -8 -247 86 -292 260 -16 63 -48 124 -83 162 -21 22
-27 43 -13 43 4 1 30 7 57 14 54 14 90 13 153 -3z m413 -20 c96 -50 127 -103
158 -274 5 -31 23 -85 40 -119 16 -35 27 -65 25 -68 -3 -2 -42 -5 -87 -5 -70
0 -90 4 -140 29 -38 18 -69 43 -89 70 -37 51 -45 70 -69 169 -21 86 -39 127
-77 172 l-25 30 39 12 c63 18 173 11 225 -16z m-718 -28 c67 -36 111 -96 138
-186 25 -84 52 -140 87 -182 l25 -30 -54 -17 c-109 -34 -194 -19 -268 48 -46
42 -72 88 -115 205 -17 47 -81 139 -97 139 -5 0 -9 4 -9 9 0 9 59 34 105 45
46 11 138 -4 188 -31z m1015 25 c74 -18 147 -71 176 -126 19 -36 33 -95 40
-163 6 -62 30 -140 53 -176 14 -21 14 -23 -3 -30 -36 -15 -157 -8 -194 10 -99
49 -143 125 -170 294 -8 49 -22 89 -45 128 -23 37 -30 57 -22 60 52 17 106 18
165 3z m-1393 -55 c77 -40 125 -101 155 -198 17 -54 56 -123 93 -162 l30 -33
-38 -16 c-49 -20 -130 -33 -146 -23 -7 4 -17 6 -21 3 -16 -10 -117 48 -152 86
-20 22 -56 82 -80 133 -41 85 -104 167 -130 167 -5 0 2 8 15 19 66 50 199 62
274 24z m1765 14 c27 -6 82 -38 115 -69 41 -37 76 -115 81 -182 12 -147 17
-177 39 -220 13 -25 19 -48 14 -51 -13 -8 -90 -8 -130 0 -107 22 -199 127
-213 245 -3 25 -8 63 -10 85 -7 56 -22 101 -46 142 -12 20 -17 39 -13 44 16
15 101 18 163 6z m-2143 -77 c78 -27 116 -68 173 -185 29 -60 66 -117 91 -142
l42 -43 -54 -24 c-102 -47 -202 -37 -282 27 -41 32 -70 74 -122 173 -33 63
-58 93 -108 131 l-29 22 34 17 c90 47 169 54 255 24z m2539 -14 c77 -35 131
-94 152 -166 2 -8 5 -62 7 -120 2 -113 9 -159 31 -202 14 -26 13 -27 -19 -30
-81 -8 -191 35 -241 94 -44 51 -65 122 -70 237 -3 77 -9 103 -33 152 -28 57
-29 58 -9 61 49 8 135 -5 182 -26z m-2897 -66 c72 -19 122 -70 176 -178 21
-41 59 -95 87 -123 47 -47 49 -51 32 -64 -33 -25 -115 -48 -173 -48 -102 -2
-181 53 -252 175 -44 75 -66 100 -122 143 -21 15 -34 32 -30 36 15 15 109 58
137 63 16 3 30 7 32 9 6 6 71 -1 113 -13z m3249 -22 c56 -26 110 -81 135 -137
19 -43 23 -92 18 -216 -3 -61 6 -131 19 -155 15 -28 13 -30 -36 -30 -95 0
-180 45 -226 121 -37 59 -40 73 -44 216 -3 91 -9 135 -24 175 -11 29 -20 54
-20 55 0 1 8 3 18 5 29 6 114 -12 160 -34z m-3603 -90 c40 -9 61 -23 107 -68
31 -31 63 -74 72 -94 9 -21 45 -67 81 -103 61 -60 64 -66 48 -79 -43 -33 -110
-56 -168 -57 -106 -2 -188 53 -274 181 -41 61 -121 131 -150 132 -21 0 15 37
68 68 69 41 111 44 216 20z m3908 -3 c76 -22 140 -75 173 -143 19 -39 24 -133
12 -264 -3 -36 -2 -87 3 -113 5 -26 7 -51 4 -55 -8 -13 -109 15 -159 44 -79
46 -138 162 -129 255 8 95 4 198 -11 233 -9 21 -16 41 -16 46 0 10 86 7 123
-3z m-4212 -139 c49 -24 90 -63 136 -132 40 -59 82 -102 133 -135 24 -16 24
-17 7 -36 -9 -11 -42 -32 -72 -48 -122 -61 -250 -24 -344 100 -54 71 -98 113
-155 145 l-49 28 47 34 c68 48 130 67 202 63 34 -1 77 -10 95 -19z m4574 -9
c107 -43 173 -137 173 -247 0 -36 -5 -76 -10 -90 -14 -35 -19 -185 -7 -216 9
-26 9 -26 -28 -19 -182 34 -266 141 -247 315 13 123 13 191 -1 237 -9 31 -10
43 -1 46 17 7 66 -4 121 -26z m-2468 -18 c18 -18 117 -37 164 -32 24 3 68 13
97 23 51 18 54 18 95 0 80 -36 163 -44 246 -24 54 12 58 12 116 -17 71 -34
154 -42 231 -22 52 13 52 13 103 -21 73 -50 174 -68 263 -47 29 7 40 5 49 -6
36 -42 152 -81 246 -81 64 0 76 -3 104 -26 34 -29 99 -64 133 -73 11 -3 55 -6
96 -7 73 -1 76 -2 115 -40 55 -54 126 -84 210 -91 61 -5 73 -9 95 -34 51 -58
142 -102 237 -115 36 -4 53 -16 100 -64 61 -62 125 -94 213 -106 26 -3 49 -13
55 -22 55 -90 176 -167 272 -173 6 -1 15 -11 18 -22 11 -34 85 -108 129 -131
23 -12 63 -28 90 -38 43 -14 54 -24 76 -64 14 -27 41 -64 60 -83 36 -35 117
-80 159 -88 13 -2 24 -6 25 -7 1 -2 11 -23 21 -48 27 -61 108 -140 178 -173
32 -15 57 -33 57 -42 0 -12 34 -79 57 -110 16 -21 99 -83 141 -104 31 -16 42
-27 42 -44 0 -36 46 -119 91 -165 23 -23 46 -42 51 -42 24 0 78 -47 78 -68 0
-26 42 -113 77 -159 13 -17 46 -46 73 -65 41 -28 50 -38 50 -64 0 -40 41 -131
73 -165 14 -14 45 -42 69 -62 39 -32 44 -41 45 -81 2 -69 48 -159 108 -214 48
-44 52 -52 58 -105 7 -73 44 -154 97 -210 39 -43 41 -49 44 -115 4 -82 31
-146 89 -209 38 -41 38 -42 40 -130 2 -97 19 -146 76 -217 17 -21 28 -43 25
-48 -3 -5 -6 -37 -6 -71 0 -66 31 -160 72 -217 19 -26 20 -36 12 -74 -19 -91
-2 -180 53 -266 21 -33 23 -43 14 -74 -25 -91 -15 -186 28 -270 19 -37 19 -43
6 -75 -30 -70 -24 -152 19 -258 20 -49 20 -53 4 -93 -26 -66 -31 -146 -12
-220 9 -36 21 -69 25 -73 5 -5 -2 -31 -16 -59 -31 -62 -39 -169 -17 -250 14
-54 13 -58 -11 -106 -25 -49 -44 -123 -40 -153 1 -8 5 -34 8 -59 3 -25 8 -52
12 -62 4 -10 -4 -32 -20 -56 -49 -75 -67 -182 -46 -274 7 -31 5 -40 -11 -55
-11 -10 -32 -43 -46 -73 -21 -45 -26 -72 -27 -152 -2 -90 -4 -99 -30 -130 -47
-56 -68 -115 -73 -208 -4 -79 -7 -88 -38 -122 -56 -63 -85 -138 -89 -234 -2
-46 -7 -57 -45 -95 -51 -52 -88 -126 -95 -195 -3 -27 -7 -57 -9 -67 -1 -10
-14 -26 -28 -35 -75 -51 -134 -165 -137 -269 -1 -12 -9 -24 -21 -28 -34 -11
-110 -93 -131 -142 -20 -48 -27 -73 -28 -109 -1 -13 -15 -28 -40 -42 -82 -46
-147 -148 -166 -257 -4 -22 -8 -47 -9 -55 -2 -8 -5 -15 -8 -15 -3 0 -54 28
-114 62 -180 102 -307 138 -484 136 -77 0 -186 -14 -235 -30 -11 -4 -25 -8
-30 -9 -53 -9 -235 -100 -288 -143 -204 -165 -318 -360 -345 -590 l-7 -59 -70
99 c-38 55 -110 157 -160 227 -49 70 -103 148 -120 172 -16 25 -32 47 -36 50
-5 4 -158 222 -249 354 -51 73 -366 520 -414 588 -23 31 -47 64 -54 75 -12 17
-120 172 -142 203 -186 264 -250 356 -250 363 0 4 8 7 18 8 9 0 27 2 38 4 44
9 379 67 684 120 173 30 407 70 520 90 113 20 219 38 235 41 17 3 80 14 140
24 61 11 124 22 140 24 107 18 746 129 1210 211 137 24 172 30 238 40 17 3 82
14 142 25 61 11 126 22 145 25 19 3 71 12 115 20 117 21 128 23 150 25 24 2
-19 16 -75 25 -73 11 -157 26 -200 35 -25 5 -61 12 -80 14 -19 3 -102 17 -185
32 -82 14 -163 28 -180 30 -16 3 -52 9 -80 14 -71 13 -98 18 -200 35 -119 20
-141 24 -200 35 -49 9 -71 13 -149 25 -21 4 -48 9 -60 11 -37 7 -542 95 -691
120 -49 8 -99 16 -110 18 -32 6 -98 18 -120 22 -11 2 -47 9 -80 14 -33 6 -73
12 -90 15 -43 8 -134 23 -175 30 -19 3 -42 8 -50 10 -8 2 -33 6 -55 10 -22 3
-89 14 -150 25 -60 11 -150 27 -200 35 -406 70 -508 88 -565 97 -36 5 -68 13
-73 17 -4 4 10 32 31 62 348 492 1752 2490 1752 2493 0 5 -87 -55 -179 -122
-25 -18 -148 -105 -241 -169 -30 -21 -152 -107 -270 -190 -118 -84 -222 -157
-230 -163 -8 -5 -71 -49 -140 -98 -69 -49 -233 -164 -365 -257 -132 -92 -265
-186 -295 -207 -30 -22 -167 -119 -305 -215 -137 -97 -313 -221 -390 -275 -77
-54 -141 -95 -142 -91 -1 4 -20 112 -42 238 -22 127 -64 374 -95 550 -31 176
-101 581 -156 900 -56 319 -103 591 -105 605 -3 14 -25 144 -51 290 -25 146
-65 378 -89 515 -25 138 -47 266 -50 285 -3 19 -7 46 -10 60 -3 14 -7 41 -10
60 -3 19 -10 58 -15 85 -13 70 -19 103 -26 158 -7 53 -10 55 -18 12 -3 -15
-10 -51 -15 -79 -6 -28 -13 -67 -15 -86 -3 -19 -8 -47 -11 -62 -11 -58 -15
-85 -25 -143 -5 -33 -12 -70 -14 -82 -3 -12 -27 -156 -55 -320 -28 -164 -53
-309 -56 -323 -9 -47 -25 -135 -30 -175 -4 -22 -8 -47 -10 -55 -4 -14 -10 -49
-20 -115 -2 -16 -6 -41 -9 -55 -5 -20 -24 -131 -41 -230 -14 -83 -47 -272 -50
-292 -7 -36 -24 -129 -30 -168 -3 -19 -12 -71 -20 -115 -7 -44 -16 -98 -20
-120 -3 -22 -7 -47 -10 -55 -2 -8 -6 -33 -10 -54 -3 -21 -7 -48 -10 -60 -2
-12 -7 -37 -10 -56 -2 -19 -7 -45 -9 -56 -2 -12 -7 -37 -10 -55 -3 -19 -10
-59 -15 -89 -29 -165 -73 -419 -77 -445 -2 -16 -18 -102 -34 -191 -16 -88 -32
-182 -36 -210 -3 -27 -9 -54 -13 -60 -4 -8 -34 8 -86 45 -44 32 -287 203 -540
381 -253 177 -478 336 -500 352 -22 16 -209 148 -415 293 -206 145 -411 289
-455 320 -44 31 -150 105 -235 165 -85 60 -159 113 -165 117 -40 32 -167 114
-161 104 4 -7 83 -119 175 -249 92 -130 187 -266 212 -302 25 -36 149 -211
275 -390 126 -179 237 -336 246 -350 10 -14 46 -65 81 -115 110 -155 416 -590
592 -840 93 -132 179 -254 192 -272 l24 -31 -28 -6 c-49 -10 -669 -118 -868
-152 -61 -10 -990 -171 -1035 -179 -14 -3 -158 -28 -320 -55 -162 -28 -317
-55 -345 -60 -27 -5 -66 -12 -85 -15 -19 -3 -71 -12 -115 -20 -44 -8 -96 -17
-115 -20 -19 -4 -87 -15 -150 -26 -63 -11 -191 -33 -285 -49 -352 -61 -447
-79 -451 -83 -3 -2 19 -7 48 -11 29 -4 139 -22 243 -41 105 -18 206 -36 225
-39 19 -3 46 -8 60 -10 14 -3 52 -10 85 -15 33 -6 114 -20 180 -32 66 -11 129
-22 140 -24 34 -5 89 -14 110 -19 11 -2 40 -7 65 -11 25 -4 54 -9 65 -11 11
-2 111 -20 223 -39 112 -19 213 -37 225 -40 12 -2 36 -6 52 -9 64 -9 172 -28
210 -36 22 -4 62 -11 89 -15 27 -3 52 -8 55 -9 3 -2 29 -7 56 -11 28 -4 59 -9
70 -11 38 -6 360 -62 390 -68 90 -16 326 -56 360 -61 22 -4 47 -8 55 -10 8 -2
31 -7 50 -10 19 -3 109 -19 200 -35 91 -16 185 -31 210 -35 25 -3 52 -8 60
-10 8 -2 31 -7 50 -10 19 -4 71 -13 115 -20 44 -8 86 -15 93 -15 8 0 -4 -25
-30 -62 -25 -35 -163 -232 -308 -438 -145 -206 -276 -393 -292 -415 -35 -48
-604 -856 -755 -1072 -59 -84 -108 -152 -109 -150 -1 1 -4 20 -8 42 -35 247
-208 485 -450 620 -44 25 -162 73 -196 80 -8 2 -37 8 -63 14 -82 19 -218 24
-309 12 -131 -17 -238 -57 -364 -132 l-32 -19 -12 30 c-24 58 -70 110 -125
141 -36 20 -55 37 -55 50 0 70 -67 175 -146 229 -34 24 -44 37 -44 59 0 71
-65 185 -135 239 -40 31 -43 36 -47 90 -5 73 -38 138 -102 204 -46 48 -50 54
-51 107 -3 71 -40 155 -96 216 -40 44 -42 48 -40 104 2 72 -25 150 -77 216
-36 46 -37 51 -38 129 0 89 -18 142 -74 219 -28 39 -30 48 -22 83 18 81 -2
168 -60 260 -20 31 -23 44 -16 64 26 67 2 217 -45 284 -18 25 -19 33 -8 62 28
78 20 184 -22 272 -22 46 -22 48 -5 97 27 78 21 199 -14 272 -9 17 -6 33 12
75 30 70 31 171 2 247 l-21 53 24 47 c41 78 51 187 25 257 -14 37 -13 47 15
88 13 20 22 36 20 36 -3 0 0 12 6 28 13 32 13 164 1 207 -7 24 -5 34 11 50 54
55 83 178 65 278 -8 42 -7 52 10 67 10 10 31 44 47 76 24 48 30 75 33 149 4
82 6 93 33 120 48 51 72 120 75 212 2 80 3 83 38 113 52 46 95 140 101 223 5
62 8 70 40 98 54 48 112 175 114 251 1 19 12 35 39 54 21 15 51 45 66 66 32
45 66 139 66 183 0 27 5 35 30 45 34 14 111 95 134 141 8 16 20 53 26 82 10
42 18 56 39 65 60 28 137 126 168 214 14 39 25 53 50 63 75 32 147 123 186
238 4 9 19 22 34 27 90 33 155 94 197 185 18 40 30 54 52 59 68 17 178 119
209 193 10 23 24 32 74 47 74 22 154 89 192 160 20 38 30 47 59 52 47 9 129
47 161 76 14 13 43 44 63 69 30 39 43 47 79 52 23 3 60 15 82 26 39 19 155
125 155 142 0 5 20 9 45 9 75 0 151 36 217 101 51 52 64 59 106 63 98 10 162
37 224 94 39 36 48 40 98 41 87 1 160 32 235 102 28 26 35 28 75 21 81 -14
194 21 265 82 17 14 32 26 35 26 3 -1 24 -5 48 -9 23 -5 42 -6 42 -2 0 3 21 7
46 8 51 2 109 22 161 57 29 20 40 22 66 15 83 -24 192 -4 271 48 36 23 43 25
74 13 82 -29 202 -17 286 30 27 15 33 14 83 -2 64 -22 141 -18 223 11 66 22
92 25 107 10z m-2437 -125 c51 -26 86 -56 127 -111 39 -53 112 -121 145 -135
15 -7 28 -16 28 -20 0 -17 -87 -69 -139 -84 -66 -20 -142 -14 -199 15 -40 20
-69 47 -152 135 -26 28 -70 61 -103 76 l-58 28 43 37 c98 85 213 107 308 59z
m5249 -11 c81 -37 161 -160 161 -246 0 -18 -11 -71 -24 -119 -17 -61 -23 -106
-21 -156 l3 -71 -34 5 c-19 2 -56 15 -82 28 -117 60 -167 178 -135 320 21 96
25 167 14 215 -5 25 -8 48 -5 52 5 9 80 -8 123 -28z m-5562 -170 c35 -16 73
-47 112 -91 33 -37 86 -83 118 -101 32 -19 60 -37 63 -39 11 -9 -88 -84 -134
-101 -106 -39 -208 -6 -324 107 -69 66 -141 112 -177 112 -26 0 -17 24 23 62
90 87 205 105 319 51z m5823 12 c98 -26 168 -85 199 -171 26 -69 23 -128 -15
-234 -19 -52 -27 -97 -28 -148 -1 -73 -1 -73 -26 -67 -78 19 -157 83 -198 160
-25 46 -25 159 -1 236 22 66 28 163 16 212 -7 24 -5 28 10 24 10 -3 29 -8 43
-12z m-6135 -199 c28 -14 80 -54 117 -89 38 -36 93 -76 124 -91 l56 -27 -18
-22 c-48 -55 -120 -100 -177 -111 -87 -16 -155 14 -297 131 -28 23 -78 52
-111 64 l-59 22 23 31 c29 37 107 93 151 105 60 18 138 12 191 -13z m6479 -6
c141 -60 212 -214 161 -350 -48 -128 -57 -159 -60 -208 -1 -29 -5 -55 -8 -59
-10 -9 -130 52 -159 81 -47 48 -72 121 -69 200 1 21 16 80 32 130 23 66 31
109 31 159 0 76 2 78 72 47z m-6758 -213 c16 -8 55 -38 87 -66 59 -52 143
-101 172 -101 47 0 -33 -91 -114 -128 -104 -48 -216 -26 -321 63 -48 40 -126
81 -174 89 -16 3 -31 7 -33 10 -7 7 51 79 89 111 79 67 192 75 294 22z m7045
8 c82 -29 136 -85 169 -175 27 -73 19 -142 -26 -237 -39 -83 -62 -160 -60
-205 1 -24 -2 -27 -19 -22 -76 23 -163 105 -184 174 -18 61 -11 152 16 218 42
98 54 145 54 205 0 31 1 57 3 57 2 0 23 -7 47 -15z m-7321 -242 c25 -15 60
-39 78 -55 40 -35 94 -62 150 -77 38 -11 41 -14 31 -32 -23 -43 -86 -103 -128
-122 -90 -40 -207 -21 -302 48 -62 46 -137 82 -182 88 -21 3 -41 7 -44 10 -8
9 32 69 66 99 43 39 89 60 156 73 69 13 108 6 175 -32z m7654 -20 c128 -83
169 -224 103 -352 -13 -25 -36 -68 -51 -94 -14 -27 -32 -77 -38 -112 -14 -71
-15 -71 -86 -23 -23 16 -59 55 -79 86 -35 53 -37 62 -38 137 0 75 3 87 39 160
41 84 64 160 61 208 -2 26 0 28 24 22 14 -3 44 -18 65 -32z m-7948 -209 c19
-8 56 -30 82 -49 54 -39 125 -71 176 -81 l35 -6 -31 -46 c-42 -60 -73 -89
-127 -114 -80 -37 -173 -25 -276 38 -78 47 -151 74 -197 74 -43 0 -43 0 -22
41 70 136 228 198 360 143z m8269 -87 c50 -55 79 -130 77 -199 -1 -49 -28
-111 -81 -189 -31 -47 -63 -130 -63 -166 -1 -29 -5 -29 -59 6 -145 91 -173
242 -75 403 49 82 73 151 75 216 l1 23 41 -23 c22 -13 60 -45 84 -71z m-8546
-168 c18 -6 63 -29 100 -50 37 -21 98 -46 137 -56 38 -10 71 -18 72 -19 2 -2
-8 -22 -22 -47 -62 -106 -174 -157 -294 -135 -23 4 -73 23 -110 41 -87 44
-126 56 -184 59 -61 2 -62 15 -8 94 76 113 185 153 309 113z m8777 -66 c79
-67 115 -192 84 -288 -15 -45 -28 -68 -84 -143 -21 -29 -49 -80 -61 -114 -12
-34 -27 -64 -32 -65 -6 -2 -33 17 -60 41 -124 111 -125 261 -6 422 29 39 63
133 63 174 l0 30 38 -19 c20 -11 46 -28 58 -38z m-8925 -248 c63 -30 118 -48
154 -52 31 -3 55 -11 55 -17 0 -17 -42 -89 -72 -125 -35 -41 -106 -72 -171
-75 -52 -3 -71 2 -250 67 -45 16 -85 24 -117 22 l-48 -3 13 39 c41 115 165
200 284 193 38 -2 81 -16 152 -49z m9152 -35 c30 -27 65 -71 77 -97 25 -54 33
-140 18 -187 -12 -33 -60 -108 -88 -136 -32 -32 -77 -105 -90 -145 -7 -22 -16
-43 -19 -48 -12 -13 -101 83 -125 137 -19 40 -24 65 -22 116 3 73 22 118 86
203 55 72 86 140 89 195 2 22 18 13 74 -38z m-9381 -247 c54 -23 101 -36 149
-40 38 -3 69 -8 69 -10 0 -22 -55 -109 -95 -148 -84 -84 -168 -96 -318 -43
-70 24 -109 32 -164 32 -72 1 -72 1 -67 26 23 99 108 187 214 221 43 14 130
-1 212 -38z m9609 -52 c59 -62 88 -134 85 -216 -4 -79 -22 -115 -107 -211 -64
-71 -109 -144 -109 -175 0 -7 -10 -5 -27 6 -74 49 -121 138 -118 223 2 74 28
130 100 217 58 69 105 154 105 188 0 29 21 19 71 -32z m-9829 -242 c65 -22
113 -32 160 -33 38 -1 68 -4 68 -7 0 -26 -38 -104 -67 -138 -74 -87 -197 -118
-318 -80 -96 30 -168 37 -233 24 -22 -4 -23 -2 -17 28 9 42 49 127 72 152 24
27 67 54 111 70 61 22 124 18 224 -16z m10037 -71 c53 -52 76 -111 74 -194 -1
-94 -25 -139 -123 -235 -46 -45 -89 -97 -105 -129 l-28 -55 -43 48 c-76 84
-93 194 -46 299 11 25 49 76 85 115 63 67 117 153 117 187 0 22 23 10 69 -36z
m-10219 -240 c67 -18 160 -26 200 -17 33 8 -13 -128 -61 -179 -71 -76 -167
-95 -316 -63 -88 18 -167 20 -214 6 -20 -7 -21 -4 -15 34 15 107 108 209 214
236 55 14 90 11 192 -17z m10387 -70 c50 -51 86 -141 85 -207 -1 -31 -5 -68
-9 -84 -11 -35 -69 -109 -110 -137 -50 -34 -115 -105 -140 -150 l-21 -40 -27
32 c-42 50 -76 134 -79 194 -4 79 29 140 134 243 59 59 93 101 106 133 10 27
21 48 25 48 3 0 19 -15 36 -32z m-10576 -245 c51 -14 159 -20 203 -10 l28 6
-6 -41 c-7 -45 -43 -122 -72 -157 -49 -58 -158 -94 -244 -79 -97 16 -188 18
-233 4 -25 -8 -48 -12 -50 -9 -3 2 -3 19 -1 36 22 154 142 270 274 266 30 -1
76 -8 101 -16z m10791 -162 c17 -36 22 -64 22 -128 -1 -77 -3 -86 -35 -133
-19 -28 -63 -72 -99 -98 -72 -52 -123 -102 -148 -144 -9 -15 -19 -28 -22 -28
-8 0 -68 93 -80 125 -20 53 -15 128 13 186 31 65 35 69 117 139 84 71 115 106
137 154 l17 39 28 -34 c15 -18 37 -53 50 -78z m-10832 -175 c36 0 77 3 93 7
25 7 27 5 27 -22 0 -78 -53 -174 -118 -215 -73 -46 -129 -54 -275 -44 -68 6
-154 -6 -171 -23 -20 -18 -26 -8 -26 39 0 94 43 173 125 229 51 35 93 43 190
36 50 -3 119 -7 155 -7z m10924 -92 c11 -15 33 -49 48 -77 22 -42 26 -62 24
-111 -2 -34 -9 -78 -16 -100 -15 -48 -87 -121 -161 -163 -56 -31 -123 -94
-145 -135 -11 -21 -12 -20 -38 19 -71 107 -68 229 7 329 17 22 64 64 105 93
69 50 141 130 142 159 0 19 10 15 34 -14z m-10947 -308 c-15 -88 -59 -150
-132 -189 -50 -27 -98 -35 -203 -33 -95 2 -139 -6 -215 -39 -17 -7 -18 -3 -13
49 9 108 48 182 123 235 58 41 101 50 226 45 73 -3 129 0 162 8 47 13 50 12
56 -7 3 -11 1 -42 -4 -69z m11093 -88 c76 -141 34 -300 -98 -374 -92 -52 -167
-106 -193 -140 l-26 -34 -32 65 c-76 155 -31 284 134 382 70 42 118 85 146
131 12 17 24 32 28 32 5 0 23 -28 41 -62z m-11197 -217 c-4 -101 -72 -204
-159 -243 -23 -10 -68 -20 -101 -23 -32 -3 -86 -7 -120 -9 -36 -3 -82 -15
-112 -30 -28 -13 -53 -21 -55 -18 -2 4 -2 39 -1 77 3 87 29 149 84 202 58 56
119 73 256 71 80 0 120 4 145 15 57 25 65 19 63 -42z m11310 -159 c41 -113 13
-239 -69 -311 -20 -18 -74 -50 -121 -73 -50 -23 -104 -58 -131 -84 -25 -24
-46 -43 -47 -42 -2 2 -13 23 -26 48 -19 36 -24 61 -24 120 0 82 18 128 73 186
26 29 163 114 182 114 4 0 32 26 61 59 62 67 73 66 102 -17z m-11397 -170 c6
-120 -51 -218 -156 -265 -51 -23 -70 -27 -146 -32 -85 -7 -127 -18 -182 -50
-49 -28 -52 -25 -56 51 -7 127 73 243 194 282 19 7 76 14 125 16 83 4 177 26
199 47 15 14 20 2 22 -49z m11446 -149 c91 -157 29 -338 -139 -405 -103 -41
-154 -69 -191 -103 l-39 -35 -19 42 c-13 30 -19 64 -18 118 0 131 55 201 210
276 80 38 164 103 164 126 0 17 16 7 32 -19z m-11520 -166 c11 -55 1 -153 -20
-193 -40 -79 -133 -138 -235 -150 -79 -9 -127 -23 -186 -55 -30 -16 -57 -26
-60 -23 -3 3 -6 45 -6 92 0 70 4 95 22 127 53 99 124 148 233 160 112 12 136
17 185 40 63 29 62 29 67 2z m11585 -214 c11 -26 17 -66 17 -123 1 -73 -3 -92
-24 -130 -44 -80 -103 -124 -200 -150 -60 -16 -134 -53 -167 -85 l-28 -26 -19
43 c-70 154 17 319 200 378 67 22 128 57 163 94 19 20 36 36 38 36 1 0 10 -17
20 -37z m-11626 -145 c12 -44 3 -132 -18 -178 -43 -95 -128 -154 -250 -175
-52 -9 -53 -9 -97 -29 -22 -9 -55 -28 -73 -42 l-33 -25 -10 25 c-18 48 -22
124 -10 175 28 116 123 188 273 207 59 7 137 33 167 55 31 23 42 20 51 -13z
m11664 -253 c28 -95 19 -167 -30 -245 -42 -66 -83 -89 -249 -137 -33 -9 -82
-32 -109 -50 -28 -19 -51 -32 -52 -31 -16 26 -27 99 -23 150 11 135 81 206
256 260 65 20 134 60 161 92 22 26 30 19 46 -39z m-11690 -97 c15 -70 17 -111
6 -154 -25 -97 -102 -170 -211 -200 -108 -30 -149 -48 -197 -85 l-48 -38 -13
37 c-31 88 -10 206 52 287 28 36 107 81 156 90 71 12 143 37 188 65 26 16 50
30 53 30 4 0 10 -15 14 -32z m11708 -354 c0 -83 -25 -146 -82 -203 -38 -38
-83 -56 -228 -90 -44 -11 -100 -31 -123 -46 -23 -15 -44 -25 -46 -22 -2 2 -8
31 -12 64 -12 85 14 178 63 228 42 44 130 87 199 99 58 10 129 41 165 73 l36
31 14 -31 c8 -18 14 -64 14 -103z m-11712 -1 c16 -49 15 -153 -1 -195 -33 -82
-101 -139 -211 -177 -82 -28 -132 -56 -171 -95 l-35 -35 -19 42 c-13 29 -19
64 -19 117 0 63 5 84 28 130 39 74 91 112 202 145 90 27 162 63 185 90 19 23
27 18 41 -22z m11693 -358 c1 -65 -3 -88 -22 -125 -48 -91 -128 -145 -230
-156 -84 -9 -144 -24 -193 -49 -27 -13 -51 -20 -54 -15 -24 38 -4 197 28 236
63 76 118 107 234 130 98 19 151 39 189 69 26 21 30 22 38 7 6 -10 10 -53 10
-97z m-11670 -19 c20 -57 19 -136 -2 -186 -29 -71 -78 -118 -170 -161 -48 -22
-97 -45 -110 -52 -13 -6 -43 -31 -68 -55 l-45 -43 -22 48 c-16 37 -22 67 -22
128 0 69 4 86 28 129 16 27 38 57 50 68 29 24 102 62 152 78 56 18 104 44 145
79 19 16 38 26 42 23 3 -4 13 -29 22 -56z m11629 -289 c15 -106 -10 -183 -80
-254 -55 -55 -113 -78 -208 -82 -73 -3 -138 -16 -188 -38 -20 -9 -40 -14 -43
-11 -6 7 -6 115 0 146 9 44 57 113 99 143 45 33 114 55 196 64 74 7 118 20
166 49 22 13 43 25 46 25 4 1 9 -18 12 -42z m-11594 -42 c28 -60 34 -151 14
-210 -22 -66 -92 -133 -188 -180 -53 -26 -97 -57 -131 -92 l-52 -53 -15 23
c-52 79 -58 200 -14 288 32 63 84 106 174 142 65 27 136 71 167 106 11 11 20
21 21 21 2 0 12 -20 24 -45z m11534 -375 c-5 -90 -24 -132 -82 -191 -68 -67
-106 -80 -252 -84 -75 -2 -119 -8 -156 -23 l-52 -20 -3 27 c-6 48 13 136 38
178 52 89 137 131 280 138 80 4 161 25 199 51 18 13 21 12 26 -8 3 -13 4 -43
2 -68z m-11438 -115 c-4 -109 -64 -191 -190 -259 -58 -31 -118 -84 -144 -127
l-19 -30 -19 28 c-66 98 -75 197 -28 297 29 61 79 103 179 151 32 16 82 52
110 80 l51 50 31 -64 c26 -53 31 -74 29 -126z m68 -235 c61 -142 13 -269 -139
-366 -69 -44 -132 -106 -148 -146 l-13 -30 -27 35 c-65 85 -82 196 -44 287 26
60 69 103 153 153 39 22 93 64 120 93 57 60 61 59 98 -26z m11286 8 c-4 -99
-39 -173 -107 -226 -63 -49 -96 -57 -231 -55 -79 1 -140 -4 -169 -12 -25 -8
-49 -12 -53 -10 -11 7 0 94 18 145 21 60 88 123 157 149 43 16 78 20 154 20
93 0 181 18 207 42 20 20 26 6 24 -53z m-11197 -309 c64 -87 68 -205 11 -293
-32 -49 -53 -71 -125 -125 -51 -38 -117 -120 -130 -160 -6 -20 -70 62 -92 117
-18 48 -22 100 -12 152 17 84 55 131 158 201 65 45 111 88 136 131 9 15 19 24
22 20 3 -4 18 -23 32 -43z m11092 -41 c-8 -95 -31 -145 -89 -202 -71 -70 -139
-88 -265 -71 -36 5 -74 9 -85 8 -36 -1 -110 -11 -129 -19 -17 -7 -18 -3 -12
50 3 34 17 79 33 108 54 98 138 141 271 138 130 -3 175 0 217 15 60 21 63 20
59 -27z m-10936 -333 c22 -41 27 -64 27 -125 0 -65 -4 -82 -28 -123 -16 -27
-47 -65 -69 -85 -92 -83 -138 -137 -154 -179 l-17 -44 -34 33 c-40 38 -81 120
-85 169 -8 107 33 194 127 266 82 62 112 92 136 138 l24 44 23 -22 c13 -12 36
-44 50 -72z m10806 -17 c-10 -96 -54 -174 -122 -221 -70 -49 -143 -58 -262
-33 -66 13 -130 14 -187 2 -35 -8 -35 -10 -17 79 14 64 78 141 149 177 43 22
100 25 270 15 63 -4 101 -2 125 7 19 8 38 14 42 15 3 0 4 -18 2 -41z m-10676
-273 c26 -36 45 -74 52 -108 21 -104 -10 -183 -117 -292 -61 -63 -100 -121
-118 -180 -6 -18 -13 -13 -60 38 -113 124 -106 281 18 395 85 79 124 123 144
163 10 22 23 39 29 39 6 0 29 -25 52 -55z m10296 -40 c58 -14 170 -14 214 0
21 7 22 5 17 -26 -9 -53 -26 -101 -50 -139 -28 -44 -48 -61 -107 -94 -59 -32
-142 -35 -241 -7 -45 13 -93 19 -142 18 -87 -3 -88 -1 -54 84 34 88 79 132
164 161 61 21 120 22 199 3z m-5930 -202 c5 -23 20 -111 41 -233 2 -14 11 -65
20 -115 9 -49 21 -117 26 -150 5 -33 21 -121 34 -195 13 -74 26 -148 29 -165
22 -134 38 -228 47 -270 8 -40 62 -354 85 -490 9 -57 45 -260 50 -286 l5 -26
-2390 0 -2390 0 37 25 c20 13 57 41 82 61 25 20 53 43 64 51 35 28 105 91 231
206 287 263 446 338 712 337 383 -2 639 -162 668 -419 4 -32 9 -60 10 -62 2
-2 9 23 15 55 56 269 -125 512 -479 643 -194 71 -454 94 -618 53 -13 -3 -23
-3 -23 -1 0 2 12 27 28 56 l27 54 85 4 c267 16 414 2 588 -56 240 -80 464
-254 631 -492 l33 -46 -105 -149 c-57 -81 -103 -149 -102 -151 2 -2 244 167
539 375 498 351 662 466 807 568 154 108 607 428 884 624 171 121 313 220 317
220 3 1 9 -11 12 -26z m1728 -256 c222 -156 498 -350 613 -432 116 -82 242
-171 280 -197 39 -27 90 -64 115 -81 213 -151 886 -625 903 -637 12 -8 68 -47
125 -87 56 -40 105 -73 108 -73 4 0 -21 43 -39 65 -11 14 -84 117 -139 196
l-46 66 40 59 c176 261 439 460 698 526 19 5 51 13 70 18 96 24 195 28 530 21
l116 -3 17 -42 c18 -43 80 -116 99 -116 6 0 9 -2 6 -5 -3 -3 -30 3 -60 15
-112 42 -222 59 -357 55 -69 -1 -135 -5 -146 -8 -11 -2 -38 -7 -60 -11 -121
-21 -321 -102 -423 -171 -50 -34 -129 -112 -162 -160 -76 -111 -104 -237 -79
-355 13 -62 24 -64 26 -6 5 97 76 222 166 287 87 64 210 110 337 127 103 13
310 7 380 -11 170 -45 316 -143 573 -383 118 -110 249 -216 339 -274 l88 -57
-2433 1 c-2426 1 -2432 1 -2430 21 2 23 11 80 18 115 2 14 7 37 9 53 3 15 10
53 15 85 6 31 13 74 17 96 3 21 8 48 10 60 2 11 7 37 10 56 2 19 8 49 11 65 3
17 7 39 9 50 2 11 10 57 18 102 8 45 18 100 21 123 3 23 13 78 21 123 8 45 33
186 54 312 22 127 42 239 44 250 2 11 7 40 11 65 4 25 9 54 11 65 9 47 54 306
54 310 0 3 2 5 5 5 2 0 186 -127 407 -283z m-5885 124 c20 -40 26 -68 26 -110
-2 -85 -33 -146 -135 -256 -29 -31 -78 -125 -78 -150 0 -29 -19 -23 -60 18
-58 58 -90 125 -94 196 -4 90 21 144 109 236 45 46 86 100 102 135 l28 58 38
-37 c21 -20 50 -60 64 -90z m9943 4 c46 -12 86 -16 137 -12 l71 5 -4 -26 c-19
-111 -99 -203 -198 -226 -68 -16 -113 -12 -210 20 -53 18 -101 27 -148 27
l-70 1 6 30 c19 92 85 163 183 196 52 18 127 13 233 -15z m-9801 -234 c108
-111 107 -247 -5 -393 -61 -79 -104 -160 -104 -195 0 -13 -3 -23 -7 -23 -18 0
-83 55 -110 93 -41 57 -56 109 -51 176 5 71 36 134 104 208 31 33 66 85 81
121 15 34 31 62 36 62 5 0 30 -22 56 -49z m9580 -60 c72 -24 105 -30 166 -28
86 2 85 5 46 -86 -60 -141 -204 -201 -351 -146 -95 36 -185 57 -223 54 -33 -4
-37 -1 -37 18 0 33 55 121 97 156 80 66 170 75 302 32z m-9402 -191 c53 -32
104 -129 79 -148 -6 -5 -39 -24 -73 -43 -68 -35 -67 -44 2 -54 85 -13 89 -24
29 -93 -58 -68 -154 -96 -240 -69 -33 10 -34 13 -29 45 8 54 40 117 84 170 47
56 88 131 97 178 7 40 9 40 51 14z m9194 -106 c84 -35 102 -39 182 -39 38 0
67 -4 67 -10 -1 -22 -43 -102 -68 -128 -104 -110 -299 -80 -365 55 -19 39 -15
48 21 48 26 1 26 1 -10 23 -29 17 -38 29 -38 49 0 14 6 29 13 32 27 12 138 -4
198 -30z"/>
<path d="M8863 14658 c0 -7 -4 -85 -7 -173 -4 -88 -9 -201 -11 -252 l-4 -91
55 -4 c30 -1 55 -1 55 2 3 12 8 89 10 146 l1 60 32 -2 c17 -1 36 -3 43 -3 6
-1 39 -49 73 -108 l61 -108 64 -1 c75 -2 75 -12 -6 129 l-58 101 39 33 c97 83
69 216 -56 263 -15 6 -87 13 -159 16 -106 5 -132 3 -132 -8z m264 -113 c27
-18 31 -66 7 -85 -15 -13 -126 -22 -151 -13 -13 5 -19 103 -8 115 11 11 130
-3 152 -17z"/>
<path d="M8368 14645 c-2 -2 -32 -6 -68 -9 -36 -4 -87 -10 -115 -13 -27 -3
-56 -6 -63 -6 -10 0 -12 -11 -8 -41 3 -23 8 -63 11 -91 3 -27 10 -84 15 -125
5 -41 11 -97 14 -125 4 -27 9 -72 12 -98 l6 -49 72 7 c39 4 79 9 88 10 9 2 48
7 85 11 37 3 75 8 83 9 8 2 20 4 27 4 6 1 10 9 8 19 -2 9 -4 32 -4 50 -1 32
-1 32 -43 28 -24 -3 -74 -7 -113 -11 -38 -4 -78 -9 -87 -11 -15 -4 -18 1 -19
28 0 18 -3 45 -5 60 -5 31 3 35 96 43 117 11 123 14 110 71 -4 18 -5 35 -2 38
7 8 7 7 -115 -8 -57 -7 -103 -10 -104 -7 0 3 -2 21 -4 39 -2 19 -6 40 -9 48
-4 10 3 14 27 15 18 0 46 3 62 5 69 10 101 13 127 14 19 0 25 4 23 18 -2 9 -4
32 -4 50 l-1 32 -50 -1 c-27 -1 -51 -3 -52 -4z"/>
<path d="M9399 14612 c0 -15 -2 -36 -4 -47 -2 -11 -7 -47 -10 -80 -3 -33 -8
-67 -10 -75 -2 -8 -7 -44 -10 -80 -4 -36 -8 -76 -10 -90 -18 -131 -18 -130 7
-131 81 -5 91 -3 93 11 1 8 5 40 9 70 3 30 11 93 17 140 13 98 14 110 24 205
4 39 9 73 12 78 6 9 -11 14 -69 21 -47 5 -48 4 -49 -22z"/>
<path d="M9621 14503 c-13 -59 -33 -146 -43 -193 -11 -47 -26 -115 -33 -151
l-12 -67 51 -10 c28 -6 52 -9 54 -7 3 3 4 6 37 160 15 66 28 127 30 135 2 8 4
22 4 30 2 25 17 -1 51 -88 25 -64 39 -86 58 -93 27 -10 19 -16 135 94 22 20
41 37 43 37 5 0 5 1 -35 -189 -23 -105 -28 -147 -20 -152 13 -8 90 -21 95 -16
3 2 56 243 70 317 3 14 13 62 24 108 l18 83 -21 8 c-12 4 -39 11 -59 14 -40 6
-42 5 -174 -125 l-42 -40 -43 112 c-46 119 -49 122 -124 134 l-41 7 -23 -108z"/>
<path d="M7462 14474 c-72 -19 -103 -36 -145 -83 -58 -64 -71 -97 -71 -181 0
-168 107 -274 274 -273 114 0 206 52 261 148 33 58 34 182 1 245 -65 124 -186
178 -320 144z m148 -115 c63 -36 100 -126 80 -199 -21 -77 -85 -123 -172 -123
-64 0 -112 33 -142 98 -25 53 -24 113 4 163 43 76 152 105 230 61z"/>
<path d="M10277 14452 c-10 -14 -167 -485 -164 -489 9 -9 329 -114 338 -111 6
2 17 21 25 43 16 48 21 44 -118 91 -60 19 -108 37 -108 40 0 2 6 21 14 41 8
21 16 46 19 55 5 15 16 13 103 -18 54 -19 100 -34 103 -34 4 0 13 20 22 45 20
54 27 47 -102 90 l-87 28 16 46 c8 25 16 47 17 49 1 1 48 -14 104 -33 56 -19
108 -35 116 -35 11 0 40 70 36 89 0 3 -311 110 -323 111 -4 0 -9 -3 -11 -8z"/>
<path d="M7014 14310 l-41 -18 62 -154 c34 -84 69 -170 78 -192 9 -21 17 -40
17 -43 0 -2 9 -26 21 -53 l21 -48 45 16 c25 9 47 22 50 28 2 6 -28 92 -67 190
-107 269 -116 289 -131 291 -8 1 -33 -6 -55 -17z"/>
<path d="M10731 14239 c-60 -36 -86 -122 -57 -188 17 -37 29 -49 116 -113 51
-38 59 -58 36 -93 -12 -18 -26 -25 -47 -25 -47 0 -126 45 -155 90 -23 34 -29
38 -43 28 -27 -21 -61 -62 -61 -73 0 -20 85 -93 140 -121 72 -36 174 -40 216
-8 46 33 67 70 72 123 4 42 0 58 -22 95 -15 25 -36 51 -48 57 -12 7 -31 20
-42 30 -11 11 -23 19 -28 19 -4 0 -15 11 -23 24 -18 27 -9 59 21 70 27 10 101
-30 131 -72 l29 -40 40 30 c21 16 40 33 42 37 2 5 -19 31 -45 58 -80 82 -202
115 -272 72z"/>
<path d="M6760 14196 c-194 -43 -294 -208 -230 -380 55 -146 203 -212 352
-156 85 32 188 128 188 175 0 11 -91 196 -104 212 -1 1 -49 -22 -107 -51
l-105 -53 20 -41 c11 -23 24 -42 28 -42 5 0 31 11 58 25 l50 25 20 -40 c20
-40 20 -40 1 -59 -53 -53 -143 -76 -201 -52 -59 24 -109 102 -110 167 0 102
98 180 217 173 l47 -3 2 52 c2 42 -1 52 -14 53 -10 0 -26 2 -37 4 -11 1 -45
-3 -75 -9z"/>
<path d="M11185 14030 c-60 -28 -95 -87 -90 -152 4 -47 27 -84 79 -128 65 -54
81 -78 70 -109 -15 -42 -54 -49 -111 -20 -42 22 -104 86 -115 120 -5 16 -76
-30 -84 -54 -11 -36 68 -121 152 -162 86 -42 171 -38 226 12 31 28 51 97 43
149 -6 40 -15 55 -76 113 -52 51 -69 74 -69 95 0 29 29 47 61 39 25 -7 99 -72
99 -88 0 -7 6 -18 14 -24 11 -9 22 -6 52 14 21 14 40 28 42 30 8 7 -50 85 -80
108 -73 54 -166 80 -213 57z"/>
<path d="M6217 13900 c-119 -46 -194 -139 -204 -250 -6 -67 7 -118 49 -181 76
-113 211 -151 334 -93 80 38 164 124 179 185 6 24 2 31 -122 218 -2 3 -74 -38
-83 -49 -3 -3 -31 -22 -63 -43 l-57 -37 26 -40 c15 -22 29 -40 31 -40 2 0 24
14 48 30 24 17 48 30 53 30 6 0 20 -16 32 -36 l22 -35 -23 -26 c-13 -13 -43
-36 -67 -50 -164 -97 -342 147 -201 273 35 31 108 60 152 59 l38 0 -2 40 c-2
22 -5 46 -7 53 -6 18 -79 14 -135 -8z"/>
<path d="M11695 13683 c-33 -19 -73 -43 -90 -53 -28 -17 -188 -108 -265 -152
-77 -45 -77 -42 -24 -82 l47 -36 36 22 c20 12 49 30 65 41 33 23 35 22 134
-55 l60 -46 -19 -68 c-10 -38 -19 -73 -19 -79 0 -5 22 -25 48 -43 l47 -32 22
87 c13 49 25 97 27 108 7 33 75 318 82 341 4 16 -4 28 -34 53 -22 17 -44 31
-48 30 -5 0 -36 -17 -69 -36z m21 -130 c-3 -10 -10 -39 -17 -65 -6 -27 -14
-48 -17 -48 -10 0 -82 52 -82 59 0 7 101 70 113 71 5 0 6 -8 3 -17z"/>
<path d="M5683 13508 l-131 -112 18 -26 c11 -14 32 -39 47 -56 15 -17 44 -50
63 -74 19 -24 40 -48 45 -54 6 -6 46 -53 89 -104 69 -81 81 -91 95 -79 9 8 71
60 139 117 67 56 122 104 122 107 0 8 -55 73 -62 73 -6 0 -104 -80 -174 -142
-21 -18 -21 -18 -58 29 l-37 48 28 25 c16 14 52 45 81 69 l51 44 -27 38 c-15
21 -29 39 -32 39 -3 0 -41 -29 -84 -65 -43 -36 -82 -65 -87 -65 -15 0 -62 71
-53 79 5 5 45 39 89 76 44 37 80 69 80 71 0 8 -56 74 -63 74 -4 0 -66 -51
-139 -112z"/>
<path d="M12055 13358 c-61 -13 -97 -33 -143 -79 -120 -122 -111 -288 22 -405
49 -43 135 -84 176 -84 16 0 169 145 178 169 1 4 -36 43 -82 88 l-85 80 -35
-36 -35 -36 46 -43 45 -44 -32 -33 -33 -34 -35 23 c-20 12 -50 40 -67 60 -26
33 -30 46 -30 96 0 50 4 64 31 97 33 42 104 83 144 83 31 0 97 -34 122 -63 28
-33 58 -93 58 -117 0 -24 26 -26 75 -6 l34 15 -14 46 c-45 150 -202 253 -340
223z"/>
<path d="M5406 13261 l-39 -40 17 -78 c10 -43 20 -89 22 -103 3 -14 7 -33 10
-42 7 -22 5 -22 -130 1 l-108 18 -37 -40 c-20 -21 -37 -42 -39 -46 -1 -4 26
-33 60 -66 35 -32 104 -97 153 -143 50 -47 107 -102 128 -121 l38 -36 39 42
40 41 -33 27 c-17 15 -76 70 -131 122 -83 80 -94 94 -70 89 16 -3 64 -11 108
-18 74 -12 79 -11 93 7 15 22 12 55 -14 158 -8 32 -13 60 -11 62 2 2 59 -50
128 -115 l125 -119 40 40 40 40 -80 76 c-157 149 -296 278 -304 281 -3 1 -24
-16 -45 -37z"/>
<path d="M12408 12923 c-117 -44 -199 -160 -191 -269 8 -111 80 -212 188 -265
l65 -32 56 43 c30 24 74 60 97 80 l41 37 -64 79 c-93 114 -82 108 -126 70
l-38 -33 23 -24 c13 -13 30 -35 39 -48 16 -23 15 -25 -17 -52 l-34 -28 -27 19
c-35 25 -74 77 -87 115 -27 82 49 193 144 211 98 18 194 -67 210 -186 l5 -37
42 8 c22 5 45 8 50 9 15 0 -1 96 -24 140 -71 138 -226 210 -352 163z"/>
<path d="M4970 12728 c-58 -31 -216 -236 -197 -255 7 -6 102 -77 212 -158
l200 -146 32 38 c18 21 33 43 33 48 -1 6 -37 36 -81 69 l-80 58 20 32 c19 29
24 31 73 30 29 0 86 -3 126 -6 l72 -6 40 51 c21 28 37 53 35 55 -2 2 -39 6
-82 9 -43 2 -94 6 -113 8 -19 1 -43 3 -52 4 -14 1 -18 10 -18 39 0 114 -117
183 -220 130z m100 -110 c11 -12 20 -25 20 -29 0 -15 -27 -67 -55 -105 l-29
-41 -48 35 c-54 41 -54 45 16 117 48 50 66 55 96 23z"/>
<path d="M12864 12532 c-22 -15 -118 -81 -214 -146 -96 -66 -177 -120 -179
-122 -5 -4 53 -94 60 -94 6 0 169 107 194 127 6 5 63 44 127 87 l117 79 -17
26 c-9 14 -24 36 -33 48 l-17 23 -38 -28z"/>
<path d="M4710 12277 c-110 -29 -203 -157 -203 -281 -1 -106 53 -195 148 -244
68 -36 179 -38 242 -4 120 63 184 195 158 324 -30 153 -188 247 -345 205z
m151 -122 c119 -62 127 -218 16 -297 -45 -32 -134 -30 -182 4 -77 55 -101 122
-71 202 38 100 141 140 237 91z"/>
<path d="M12893 12279 c-90 -17 -163 -70 -204 -151 -34 -64 -32 -175 3 -243
72 -139 209 -197 350 -149 109 37 185 155 175 273 -14 174 -165 299 -324 270z
m132 -127 c78 -42 114 -160 70 -229 -42 -66 -132 -108 -194 -91 -123 34 -175
185 -95 273 60 65 150 85 219 47z"/>
</g>
</svg>
